<?xml version="1.0" encoding="utf-8"?>
<!-- Generator: Adobe Illustrator 25.2.1, SVG Export Plug-In . SVG Version: 6.00 Build 0)  -->
<svg version="1.1" id="Layer_1" xmlns="http://www.w3.org/2000/svg" xmlns:xlink="http://www.w3.org/1999/xlink" x="0px" y="0px"
	 viewBox="0 0 615.8 441.4" style="enable-background:new 0 0 615.8 441.4;" xml:space="preserve">
<g id="Layer_1-2">
	<g id="XMLID_1_">
		<g>
			<path d="M29.3,431c-0.4,0-0.8,0-1.2-0.1C28.6,431,28.9,431.1,29.3,431z"/>
			<path d="M293.7,218.7c20.5-1.5,38.2-9.7,53.6-22.9c8.4-7.1,16.4-14.6,24.6-22c2.9-2.7,5.8-5.4,8.7-8.2c0.3-0.3,0.7-0.4,1-0.3
				c-0.3,0-0.6,0.1-0.8,0.4c-2.9,2.8-5.7,5.5-8.7,8.2c-8.1,7.4-16.2,14.8-24.5,22c-15.5,13.2-33.1,21.4-53.6,22.9
				c-0.3,0-0.5,0-0.8,0C293.2,218.7,293.4,218.7,293.7,218.7z"/>
			<path d="M27.9,430.9c0.1,0,0.2,0.1,0.3,0.1C28.1,430.9,28,430.9,27.9,430.9z"/>
			<path d="M78.2,316.9c-11.3,23-22.3,46-33.6,69c-5.1,10.5-10.3,21-15.6,31.5c-1.2,2.4-1.5,4.7,1.1,6c1.3,0.6,3.1,0.4,5.1,0.4
				c0.5,0,1,0.3,1.2,0.8c0.1,0.2,0.2,0.5,0.3,0.8c0.3,0.7,1.1,1,1.8,0.6c0,0,0,0,0,0c-0.7,0.4-1.5,0.1-1.8-0.6
				c-0.1-0.3-0.2-0.6-0.3-0.8c-0.2-0.5-0.6-0.8-1.1-0.8c-2.1,0-3.8,0.2-5.2-0.4c-2.6-1.3-2.3-3.6-1.1-6c5.3-10.5,10.4-21,15.6-31.5
				C55.8,363,66.9,339.9,78.2,316.9c10.1-20.5,20.4-40.8,30.6-61.3c5.7-11.3,11.3-22.7,17-34c0.5-0.9,0.9-1.9,1.4-3
				c0.1-0.3,0.1-0.7,0-1c0.1,0.3,0.2,0.7,0,1c-0.5,1.2-0.9,2.1-1.4,3c-5.7,11.3-11.3,22.7-17,34C98.6,276.1,88.3,296.4,78.2,316.9z"
				/>
			<path d="M599.1,70.8C599.1,70.8,599.1,70.8,599.1,70.8C599.1,70.8,599.1,70.9,599.1,70.8C599.1,70.8,599.1,70.8,599.1,70.8z"/>
			<path d="M444.7,84.3c0,0.1,0,0.1-0.1,0.2c-0.2,0.7-0.4,1.4-0.5,2.2c-0.1,0.7,0.3,1.3,1,1.4c0.7,0.1,1.4,0.2,2.1,0.2
				c0.1,0,0.1,0,0.2,0c13.3-1.6,26.6-3.2,39.9-5c2.7-0.4,5.4-1.5,8.1-2.1c4.1-0.9,8.1-1.8,12.3-2.3c11.9-1.5,23.9-2.9,35.8-4.1
				c11.8-1.3,23.7-2.3,35.5-3.5c2.5-0.2,4.9-0.5,7.3-1c3.5-0.8,6.9-2.7,10.5,0.4c0.3,0.3,0.7,0.3,1.3,0.3c-0.6,0.1-1.1,0-1.4-0.2
				c-3.5-3.1-6.9-1.2-10.5-0.4c-2.4,0.5-4.9,0.8-7.4,1c-11.8,1.2-23.7,2.2-35.5,3.5c-11.8,1.3-23.9,2.6-35.8,4.1
				c-4.1,0.5-8.2,1.5-12.3,2.3c-2.7,0.6-5.3,1.7-8.1,2.1c-13.3,1.8-26.5,3.4-39.9,5c-0.1,0-0.1,0-0.2,0c-0.7,0-1.4-0.1-2.1-0.2
				c-0.7-0.1-1.1-0.8-1-1.4c0.1-0.7,0.3-1.4,0.5-2.2C444.6,84.5,444.6,84.4,444.7,84.3c7.7-16.5,15.6-33.1,23.3-49.7
				c3.3-7.1,2.8-8.5-4.1-12.2c-1.6-0.9-3.5-1.4-5-2.3c-1.4-0.8-2.5-0.9-3.3-0.4c0.9-0.6,2-0.5,3.4,0.3c1.6,0.9,3.4,1.4,5,2.3
				c6.9,3.7,7.4,5.1,4.1,12.2C460.3,51.2,452.4,67.8,444.7,84.3z"/>
			<path d="M29.3,431c0.2,0,0.4-0.1,0.5-0.1C29.7,431,29.5,431,29.3,431z"/>
			<path d="M61.5,385.9c-2.9,5.2-4.3,11.1-6.9,16.5c-3.3,6.9-7.1,13.5-10.9,20.1c-0.5,0.9-1.7,1.5-2.7,2.1c-0.3,0.2-0.7,0.4-1.1,0.7
				c0,0,0,0,0,0c-0.1,0-0.2,0.1-0.3,0.2c-0.3,0.2-0.7,0.4-1,0.6c-0.7,0.4-1.5,0.1-1.8-0.6c-0.1-0.3-0.2-0.6-0.3-0.8
				c-0.2-0.5-0.6-0.8-1.2-0.8c-2.1,0-3.8,0.2-5.1-0.4c-2.6-1.3-2.3-3.6-1.1-6c5.3-10.5,10.5-20.9,15.6-31.5c11.2-23,22.3-46,33.6-69
				c10.1-20.5,20.4-40.8,30.6-61.3c5.7-11.3,11.3-22.7,17-34c0.5-0.9,0.9-1.8,1.4-3c0.2-0.3,0.1-0.7,0-1c-0.1-0.1-0.1-0.3-0.2-0.4
				c-0.3-0.3-0.8-0.5-1.2-0.3c-1,0.3-1.8,0.5-2.5,0.8c-10.3,3.7-20.8,3.1-31.2,0.9c-2.3-0.5-4.3-1.7-6-3.3c-1.7-1.6-3-3.8-3.9-6.1
				c-0.6-1.6-1.1-3.3-1.3-5c-1.1-7.4,0.8-14.2,3.4-20.8c3.8-9.3,8.1-18.3,12.2-27.4c6.4-14.3,12.8-28.6,19.2-42.9
				c0.6-1.4,1.2-2.5,2.1-3.2c0.1-0.1,0.2-0.1,0.3-0.2c0.1-0.1,0.1-0.1,0.2-0.1c1-0.5,2.2-0.4,4,0.6c1.6,0.9,3.5,1.2,5.2,2
				c5.8,2.6,6.9,4.8,4.4,10.3c-8.1,17.3-16.5,34.5-24.6,51.9c-3.1,6.4-5.8,13-8.1,19.7c-2.2,6.7-0.9,8.2,6,8.9
				c1.9,0.2,3.8,0.2,5.6,0c1.8-0.2,3.5-0.5,5.3-1c0.6-0.2,1.1-0.3,1.7-0.5c1.5-0.5,2.9-1.1,4.4-1.8c14.9-6.8,23.5-19,30.6-32.9
				c4.2-8.1,9.2-15.7,13.3-23.8c4.8-9.6,9.2-19.5,13.5-29.4c0.9-2,1.8-3.4,3.1-3.8c0.2-0.1,0.4-0.1,0.6-0.1c1-0.1,2.2,0.3,3.6,1.2
				c1.1,0.6,2.2,1.1,3.3,1.5c0,0,0.1,0,0.1,0c6.9,3.3,7.8,5.7,4.5,12.5c-5.8,11.6-11.8,23-17.4,34.6c-5.7,11.6-10.9,23.4-16.6,34.9
				c-12.9,25.7-26.1,51.3-39,77.1c-11.1,22.2-21.3,44.9-32.8,66.9C80.3,354.6,70.4,369.9,61.5,385.9z"/>
			<path d="M30.7,430.6c0,0-0.1,0-0.2,0.1C30.6,430.7,30.6,430.7,30.7,430.6z"/>
			<path d="M30.1,430.9c0.2-0.1,0.3-0.1,0.5-0.2C30.4,430.8,30.2,430.9,30.1,430.9z"/>
			<path d="M268,157.4c-0.9-0.7-1.8-1.4-2.8-2.1C266.2,155.9,267.1,156.6,268,157.4C268,157.4,268,157.4,268,157.4z"/>
			<path d="M598.4,71c0,0-0.1,0-0.1,0C598.3,71,598.3,71,598.4,71z"/>
			<path d="M350,256.8l-5.9,1.8l0,0l5.8-1.8c0.1,0,0.3-0.1,0.4,0C350.2,256.8,350.1,256.8,350,256.8z"/>
			<path d="M27.9,430.9c0,0-0.1,0-0.1,0c0,0-0.1,0-0.1-0.1c-0.3-0.1-0.6-0.2-0.9-0.4c-0.6-0.4-0.7-1.6-0.7-2.8
				c0-0.7,0.6-1.3,1.2-1.3c0.1,0,0.1,0,0.2,0c0.1,0,0.1,0,0.2,0.1l3.9,1.4c0,0,0,0,0,0c0.7,0.4,0.9,1.3,0.3,1.9
				c-0.1,0.1-0.2,0.2-0.3,0.3c-0.3,0.2-0.5,0.5-0.9,0.6c0,0-0.1,0-0.2,0.1h0c-0.1,0.1-0.3,0.1-0.5,0.2c0,0,0,0,0,0c0,0,0,0-0.1,0
				c0,0,0,0-0.1,0c-0.2,0-0.4,0.1-0.5,0.1c0,0,0,0,0,0c-0.4,0-0.8,0-1.2-0.1C28.1,431,28,430.9,27.9,430.9z"/>
			<path d="M288.5,195.9c-1,0.9-2.4,2.8-2.1,3.4c0.4,0.7,1.1,1.5,1.8,2c-0.8-0.6-1.5-1.4-1.9-2.1C286,198.7,287.4,196.8,288.5,195.9
				c0-0.1,0-0.1,0.1-0.1c1.6-1.1,3.4-2.1,5.2-2.9c23.3-13.2,46.6-26.5,70-39.6c2.9-1.6,2.6-2.9,0.7-4.9c-2.3-2.5-4.8-4.5-7.3-6.3
				c2.6,1.7,5.1,3.8,7.4,6.3c1.9,2,2.2,3.2-0.7,4.9c-23.4,13.1-46.7,26.4-70,39.6c-1.8,0.8-3.5,1.8-5.2,2.9
				C288.6,195.9,288.6,195.9,288.5,195.9z"/>
			<path d="M293.6,173.6c-0.4,0.6-0.3,1.2,0.1,1.6c0.1,0.1,0.2,0.2,0.4,0.3c0.3,0.1,0.6,0.1,0.9,0c0,0,0.1,0,0.1-0.1c0,0,0,0,0,0h0
				l22.9-12.6l28.7-15.7c0.9-0.5,0.8-1.8,0-2.2c-0.1-0.1-0.3-0.1-0.5-0.1c-0.8-0.1-1.7-0.1-2.7,0c-0.1,0-0.3,0-0.4,0
				c-0.2,0-0.4,0-0.6,0.1c-0.4,0-0.8,0.1-1.2,0.1c-0.2,0-0.5,0.1-0.7,0.1c0,0,0,0,0,0c-0.2,0-0.5,0.1-0.7,0.1
				c-1,0.2-2.1,0.4-3.2,0.8c-0.3,0.1-0.5,0.1-0.8,0.2c-0.3,0.1-0.6,0.2-0.9,0.3c-0.3,0.1-0.5,0.2-0.8,0.3c0,0,0,0,0,0
				c-0.3,0.1-0.6,0.2-0.8,0.3c-0.4,0.1-0.9,0.3-1.4,0.5c-0.1,0-0.3,0.1-0.4,0.1c-0.3,0.1-0.6,0.2-0.9,0.3c-0.3,0.1-0.6,0.2-0.9,0.3
				c0,0,0,0,0,0c-8,3.2-16.9,8.2-24.3,13.8c0,0,0,0,0,0c-0.2,0.2-0.5,0.4-0.7,0.6c0,0-0.1,0-0.1,0.1c-1.6,1.2-3.1,2.5-4.5,3.8
				c-0.5,0.5-1,0.9-1.5,1.4c-0.5,0.5-1,0.9-1.4,1.4c-0.2,0.2-0.5,0.5-0.7,0.7c-0.2,0.2-0.4,0.5-0.6,0.7c-0.2,0.2-0.4,0.5-0.6,0.7
				c-0.2,0.2-0.4,0.5-0.6,0.7c0,0,0,0,0,0c-0.3,0.4-0.6,0.8-0.9,1.1C293.7,173.5,293.7,173.6,293.6,173.6L293.6,173.6z M250.5,155.9
				c-12-0.5-44.5,24-50.3,37.7c-0.5,1.2,0.9,2.2,1.9,1.5l49-36.9c0.6-0.4,0.7-1.2,0.2-1.8C251.2,156.2,250.9,156,250.5,155.9z
				 M149.9,232.7c-0.5-0.2-0.9-0.8-1.3-1.4c-0.4-0.5-0.2-1.3,0.2-1.7c0.4-0.4,0.9-0.7,1.4-1c0.1,0,0.1-0.1,0.1-0.1
				c4.9-2.6,9.9-4.9,14.6-7.7c1.8-1.1,3.1-2.8,3.8-4.9c5.4-19.9,17.6-35.1,32.5-48.7c8.1-7.2,17.6-12.7,27.9-16.1
				c10.8-3.7,21.7-3.5,31.7,1.5c0,0,0,0,0,0c0,0,0,0,0,0c0.5,0.2,0.9,0.5,1.4,0.7c0,0,0,0,0.1,0c1,0.6,2,1.2,2.9,1.8c0,0,0,0,0,0
				c0.9,0.6,1.9,1.3,2.8,2.1c0,0,0,0,0.1,0c0,0,0,0,0,0c0.6,0.5,1.1,1.1,1.6,1.7c0.5,0.5,0.5,1.3-0.1,1.8c-1.7,1.5-3.3,3-5,4.3
				c-20.4,15.7-40.9,31.4-61.4,47c-5.3,4-10.8,7.6-16.3,11.4c-0.5,0.4-1.3,0.6-1.5,1.1c-0.3,0.9-0.6,1.9-0.9,2.9
				c-0.2,0.6,0.2,1.3,0.8,1.5c0,0,0,0,0,0c0.1,0,0.1,0,0.2,0.1c0,0,0,0,0,0c0,0,0,0,0,0c0,0,0.1,0,0.1,0c0.1,0,0.2,0,0.3,0.1
				c0.8,0.1,1.7,0.2,2.3-0.1c5.3-2.6,10.5-5.3,15.6-8.3c17-10.2,33.8-20.6,50.9-30.7c4.3-2.6,6.6-6.5,9.4-10.4
				c4.8-6.8,10.3-13.2,16.4-18.9c13.4-12.3,28.9-21.6,47.1-24.5c8.6-1.4,16.8-0.5,24.2,2.9c1.8,0.8,3.5,1.8,5.2,2.9
				c2.6,1.7,5,3.8,7.3,6.3c1.9,2,2.2,3.2-0.7,4.9c-23.4,13.1-46.7,26.4-70,39.6c-1.8,0.9-3.5,1.8-5.2,2.9c0,0-0.1,0.1-0.1,0.1
				c-1,0.9-2.4,2.8-2.1,3.4c0.4,0.7,1.1,1.5,1.9,2.1c0.2,0.2,0.5,0.3,0.7,0.4c0.4,0.2,0.8,0.3,1.1,0.3c3-0.1,6-0.4,8.9-0.8
				c0.2,0,0.4,0,0.6-0.1c1.9-0.2,3.8-0.5,5.6-0.8c7.9-1.3,14.8-4.9,21.3-9.1c2.2-1.4,4.3-2.9,6.5-4.3c2.8-1.9,5.5-4,8.1-6.2
				c10.7-9.3,21.4-18.6,31.9-28.1c7.6-6.8,15.3-13.6,22.4-21c0.3-0.3,0.6-0.6,0.8-0.9c0.9-1,1.8-2,2.6-3c1.6-2,3.2-4,4.7-6.1
				c0.5-0.7,1-1.4,1.6-2.2c1-1.4,2-2.8,3.1-4.2c0.5-0.7,0.6-1.7,0.8-2.9c0.1-0.8-0.6-1.5-1.4-1.4c-2.5,0.3-4.8,0.4-6.9,0.8
				c-9.6,1.8-19.1,4-28.8,5.7c-14.9,2.6-29.8,4.8-44.7,7.3c-6,1-11.9,2.8-17.9,3.5c-6.2,0.7-6.9-0.5-6-6.8c0.3-2.4,1-4.3,2.2-5.7
				c0.1-0.1,0.1-0.1,0.1-0.2c0-0.1,0.1-0.1,0.2-0.2c0,0,0,0,0.1-0.1c0.1-0.1,0.3-0.2,0.4-0.4c0,0,0,0,0.1,0c0.2-0.1,0.3-0.2,0.5-0.4
				c1-0.6,2.3-1.1,3.9-1.3c9.3-1.4,18.5-3.3,27.7-5.1c12.9-2.4,25.7-5,38.6-7.3c12.9-2.3,25.8-4.1,38.7-6.4c0.7-0.2,1.4-0.5,2-0.8
				c0.6-0.3,1.1-0.8,1.6-1.3c0.3-0.4,0.6-0.8,0.9-1.2c4.6-8.6,8.8-17.3,13.1-26c1.1-2.1,2.1-4.3,3.2-6.4c3.2-6.4,6.4-12.9,9.5-19.3
				c0.2-0.4,0.4-0.7,0.5-1.1c1.2-2.5,2.5-5,3.7-7.6c1.4-2.9,2.3-6,3.5-9c0.3-0.7,0.7-1.3,1.1-1.7c0.1-0.1,0.2-0.2,0.3-0.2
				c0.8-0.5,1.9-0.4,3.3,0.4c1.6,0.9,3.4,1.5,5,2.3c6.9,3.7,7.4,5.1,4.1,12.2c-7.8,16.6-15.6,33.1-23.4,49.7c0,0.1,0,0.1-0.1,0.2
				c-0.2,0.7-0.4,1.4-0.5,2.2c-0.1,0.7,0.3,1.3,1,1.4c0.7,0.1,1.4,0.2,2.1,0.2c0.1,0,0.1,0,0.2,0c13.3-1.6,26.6-3.2,39.9-5
				c2.7-0.4,5.4-1.5,8.1-2.1c4.1-0.9,8.1-1.8,12.3-2.3c11.9-1.5,24-2.9,35.8-4.1c11.8-1.3,23.7-2.3,35.5-3.5c2.5-0.2,4.9-0.5,7.4-1
				c3.5-0.8,6.9-2.7,10.5,0.4c0.3,0.2,0.8,0.3,1.4,0.2c0,0,0,0,0,0c0,0,0,0,0.1,0c0,0,0,0,0,0c0,0,0.1,0,0.1,0
				c0.2,0,0.5-0.1,0.7-0.1c0,0,0,0,0.1,0c1.1-0.1,1.8,1.1,1.2,2c-0.3,0.4-0.6,0.8-0.8,1.1c0.1,0.3,0,0.7,0.2,0.9
				c0.4,0.5,0.9,1.1,1.3,1.6c0.4,0.5,0.4,1.3-0.1,1.7c-0.6,0.6-1.2,1.1-1.9,1.2c-7.4,1.3-14.8,2.9-22.3,3.4
				c-5.2,0.4-10.4,1.4-15.5,2.8c-6.9,1.9-14.2,2.2-21.3,3.5c-9,1.7-18,3.8-27,5.6c-5.5,1.1-11.1,2.1-16.6,3.1
				c-2.6,0.5-5.3,1.1-7.9,1c-0.2,0-0.4,0-0.5,0c0,0-0.1,0-0.1,0c-2.5-0.3-4.9-1.4-6.9-4.5c-0.3-0.4-0.7-0.6-1.1-0.5
				c-0.5,0-1,0.2-1.2,0.7c-3.5,8.4-11.6,6.6-17.9,7.9c-8.4,1.8-17,2.5-25.4,3.9c-1.3,0.3-2.4,1.1-3,2.3
				c-11.5,23.8-22.9,47.6-34.5,71.3c-7.3,14.8-14.9,29.3-22.3,43.9c-2.3,4.7-4.3,9.5-6.5,14.2c-2.9,6.2-5.8,12.5-8.9,18.6
				c-0.5,0.9-2.1,1.1-3.2,1.8c-0.7,0.4-1.8,0.9-1.8,1.4c-0.1,2.8-1,3.9-2.4,4c-0.1,0-0.1,0-0.2,0c-0.6,0-1.3-0.2-2-0.4
				c-0.7-0.3-1-1.1-0.7-1.7l1.6-3.2c0.4-0.9-0.3-1.9-1.2-1.8c-0.1,0-0.3,0-0.4,0l-5.8,1.8l-0.4-0.9l1.3-1.3c0.5-0.5,0.5-1.3,0.1-1.8
				c-2.9-2.9-0.4-5.8,0.9-8.5c8.6-18.3,17.2-36.5,25.9-54.7c3.9-8,7.5-16.2,10.8-24.5c0.3-0.9-0.3-1.6-1.1-1.7c0,0-0.1,0-0.1,0
				c-0.3,0-0.7,0.1-1,0.3c-2.9,2.8-5.7,5.5-8.7,8.2c-8.1,7.4-16.2,14.9-24.6,22c-15.5,13.2-33.1,21.4-53.6,22.9c-0.2,0-0.4,0-0.7,0
				c-2.1,0-4.3-0.6-6.5-1c-2.7-0.6-5.4-1.1-8.2-1.4c-5.7-0.3-13-4.6-16.5-9.9c-0.2-0.4-0.7-0.6-1.1-0.5c-0.2,0-0.4,0-0.6,0.1
				c-8.6,4.2-17.4,8.3-25.9,12.9c-14.9,8.2-29.5,16.8-44.2,25.2c-0.7,0.4-1.4,0.8-2.1,1.2c-0.3,0.1-0.5,0.3-0.8,0.4
				c-4.2,2.5-6.8,4-9.2,4.3c-0.2,0-0.4,0-0.5,0.1c-2.9,0.2-5.6-1.3-10.6-4.5c-1.6-1.2-2.6-2.9-2.9-4.9c-0.2-4-2.1-4.7-5.6-5.1
				C155.5,235.3,152.6,233.9,149.9,232.7z"/>
			<path d="M496.3,97.9c5.5-1,11.1-2,16.6-3.1c9-1.8,18-3.9,27-5.6c7.1-1.3,14.4-1.6,21.3-3.5c5.1-1.5,10.3-2.4,15.5-2.8
				c7.5-0.5,14.9-2.1,22.3-3.4c0.7-0.1,1.3-0.7,1.9-1.2c0.5-0.4,0.6-1.2,0.1-1.7c-0.5-0.5-0.9-1.1-1.3-1.6c-0.2-0.2-0.1-0.5-0.2-0.9
				c0.3-0.3,0.6-0.7,0.8-1.1c0.7-0.9-0.1-2.1-1.2-2c1.1-0.2,1.8,1,1.2,1.9c-0.3,0.4-0.5,0.8-0.8,1.2c0.1,0.3,0,0.7,0.2,0.9
				c0.4,0.6,0.9,1.1,1.3,1.6c0.4,0.5,0.4,1.3-0.1,1.8c-0.6,0.5-1.2,1.1-1.9,1.2c-7.4,1.3-14.8,2.9-22.3,3.4
				c-5.2,0.4-10.4,1.4-15.5,2.8c-6.9,1.9-14.2,2.2-21.3,3.5c-9,1.7-18,3.8-27,5.6c-5.5,1.1-11,2.1-16.6,3.1c-2.7,0.5-5.5,1.2-8.1,1
				C491,99,493.7,98.3,496.3,97.9z"/>
			<path d="M355.4,259.9c-0.1,2.9-1,4-2.5,4c1.4-0.1,2.3-1.2,2.4-4c0-0.5,1.1-1,1.8-1.4c1-0.6,2.7-0.9,3.2-1.8
				c3.1-6.1,6-12.4,8.9-18.6c2.2-4.7,4.1-9.6,6.5-14.2c7.4-14.7,15-29.2,22.3-43.9c11.6-23.7,22.9-47.6,34.5-71.3
				c0.6-1.1,1.7-2,3-2.3c8.5-1.4,17-2.1,25.4-3.9c6.3-1.3,14.3,0.5,17.9-7.9c0.2-0.5,0.7-0.8,1.2-0.7c-0.4,0-0.8,0.3-1,0.7
				c-3.5,8.4-11.6,6.6-17.9,7.9c-8.4,1.8-17,2.5-25.4,3.9c-1.3,0.3-2.4,1.1-3,2.3c-11.5,23.8-22.9,47.6-34.5,71.3
				c-7.2,14.8-14.9,29.3-22.3,43.9c-2.3,4.7-4.3,9.5-6.5,14.2c-2.9,6.2-5.8,12.5-8.9,18.6c-0.5,0.9-2.1,1.1-3.2,1.8
				C356.5,258.9,355.4,259.4,355.4,259.9z"/>
			<path d="M598.2,71C598.2,71,598.2,71,598.2,71C598.2,71,598.2,71,598.2,71z"/>
			<path d="M31.5,427.8l-3.9-1.4c-0.1,0-0.1,0-0.2-0.1c0.1,0,0.2,0,0.3,0.1l3.7,1.4C31.4,427.7,31.4,427.8,31.5,427.8z"/>
			<path d="M184.6,227.6c-0.2,0.6,0.2,1.2,0.7,1.5C184.8,228.9,184.4,228.2,184.6,227.6c0.2-1,0.5-1.9,0.8-2.9
				c0.2-0.5,1-0.7,1.5-1.1c5.4-3.8,11-7.4,16.3-11.4c20.5-15.6,41-31.3,61.4-47c1.7-1.3,3.3-2.8,5-4.3c0.5-0.5,0.6-1.3,0.1-1.8
				c-0.5-0.6-1.1-1.1-1.6-1.7c0,0,0,0,0,0h0c0,0,0.1,0.1,0.1,0.1c0.6,0.5,1.1,1.1,1.6,1.7c0.5,0.5,0.5,1.3-0.1,1.8
				c-1.7,1.5-3.3,3-5,4.3c-20.5,15.7-40.9,31.4-61.4,47c-5.3,4-10.8,7.6-16.3,11.4c-0.5,0.4-1.3,0.6-1.5,1.1
				C185.2,225.7,184.9,226.6,184.6,227.6z"/>
			<path d="M190.1,244.1c-0.7,0.4-1.4,0.8-2.1,1.2C188.7,244.9,189.3,244.5,190.1,244.1c14.7-8.4,29.3-17,44.2-25.1
				c8.4-4.6,17.2-8.7,25.9-12.9c0.2-0.1,0.4-0.1,0.6-0.1c-0.2,0-0.3,0-0.5,0.1c-8.7,4.2-17.4,8.3-25.9,12.9
				C219.5,227.1,204.8,235.7,190.1,244.1z"/>
			<path d="M265.2,155.3C265.2,155.3,265.2,155.3,265.2,155.3C265.2,155.3,265.2,155.3,265.2,155.3z"/>
			<path d="M436.7,58.7c3.2-6.4,6.4-12.9,9.5-19.3C443.1,45.9,439.9,52.3,436.7,58.7z"/>
			<path d="M415.9,94.5c0.7-0.2,1.4-0.4,2-0.8C417.3,94.1,416.6,94.3,415.9,94.5c-12.9,2.3-25.9,4.2-38.8,6.5
				c-12.9,2.3-25.7,4.9-38.6,7.3c-9.2,1.7-18.4,3.7-27.7,5.1c-1.6,0.2-2.9,0.7-3.9,1.3c1-0.7,2.3-1.1,4-1.4
				c9.3-1.4,18.5-3.3,27.7-5.1c12.9-2.4,25.7-5,38.6-7.3C390.1,98.6,403,96.8,415.9,94.5z"/>
			<path d="M403.6,121.7c-1.5,2.1-3.1,4.2-4.7,6.1C400.6,125.9,402.1,123.8,403.6,121.7z"/>
			<path d="M305.3,200.4c7.9-1.3,14.7-4.9,21.3-9.1C320,195.5,313.2,199.1,305.3,200.4c-1.9,0.4-3.8,0.6-5.7,0.9
				C301.5,201,303.4,200.7,305.3,200.4z"/>
			<path d="M306.9,114.7c-0.2,0.1-0.4,0.2-0.5,0.4C306.6,114.9,306.8,114.8,306.9,114.7z"/>
			<path d="M306.4,115.1c-0.1,0.1-0.3,0.2-0.4,0.4C306.1,115.3,306.2,115.2,306.4,115.1z"/>
			<path d="M188,245.3c-0.2,0.1-0.5,0.3-0.7,0.4c-4.2,2.5-6.9,4-9.3,4.3c2.4-0.3,5.1-1.8,9.2-4.3C187.5,245.6,187.7,245.4,188,245.3
				z"/>
			<path d="M182.6,109.8c-1.3,0.4-2.2,1.8-3.1,3.8c-4.3,9.9-8.7,19.8-13.5,29.4c-4.1,8.1-9.1,15.7-13.3,23.8
				c-7.1,13.9-15.8,26.1-30.6,32.9c-1.5,0.7-3,1.3-4.4,1.8c1.5-0.5,2.9-1.1,4.4-1.7c14.9-6.8,23.5-19,30.7-32.9
				c4.1-8.1,9.2-15.7,13.3-23.8c4.8-9.6,9.2-19.5,13.5-29.4C180.3,111.6,181.2,110.2,182.6,109.8z"/>
			<path d="M117.9,109.7c-0.1,0.1-0.2,0.1-0.3,0.2C117.7,109.8,117.8,109.7,117.9,109.7z"/>
			<path d="M117.6,201.4c-0.6,0.2-1.1,0.4-1.7,0.5C116.4,201.8,117,201.6,117.6,201.4z"/>
			<path d="M117.6,109.9c-0.8,0.7-1.5,1.8-2.1,3.2c-6.3,14.3-12.8,28.6-19.2,42.9c-4.1,9.1-8.4,18.2-12.2,27.4
				c-2.7,6.6-4.5,13.4-3.4,20.8c0.3,1.8,0.7,3.4,1.3,5c-0.6-1.6-1.1-3.3-1.4-5.1c-1.1-7.4,0.8-14.2,3.4-20.8
				c3.8-9.2,8.1-18.2,12.2-27.4c6.4-14.3,12.9-28.5,19.2-42.9C116.1,111.7,116.8,110.5,117.6,109.9z"/>
		</g>
		<g>
		</g>
	</g>
</g>
</svg>
